<?xml version="1.0" encoding="utf-8"?>
<!-- Generator: Adobe Illustrator 22.1.0, SVG Export Plug-In . SVG Version: 6.00 Build 0)  -->
<svg version="1.1" xmlns="http://www.w3.org/2000/svg" xmlns:xlink="http://www.w3.org/1999/xlink" x="0px" y="0px"
	 viewBox="0 0 300 350" style="enable-background:new 0 0 300 350;" xml:space="preserve">
<style type="text/css">
	.st0{fill:#FFCC33;}
	.st1{fill:#D9E021;}
	.st2{fill:#8CC63F;}
	.st3{fill:url(#SVGID_1_);}
	.st4{fill:url(#SVGID_2_);}
	.st5{fill:url(#SVGID_3_);}
	.st6{fill:url(#SVGID_4_);}
	.st7{fill:url(#SVGID_5_);}
	.st8{fill:#FEFEFE;}
	.st9{fill:url(#SVGID_6_);}
	.st10{fill:#669900;}
	.st11{fill:#EDEFFD;}
	.st12{fill:url(#SVGID_7_);}
	.st13{fill:url(#SVGID_8_);}
	.st14{fill:url(#SVGID_9_);}
	.st15{fill:url(#SVGID_10_);}
	.st16{fill:url(#SVGID_11_);}
	.st17{fill:url(#SVGID_12_);}
	.st18{fill:url(#SVGID_13_);}
	.st19{fill:url(#SVGID_14_);}
	.st20{fill:url(#SVGID_15_);}
	.st21{fill:url(#SVGID_16_);}
	.st22{fill:url(#SVGID_17_);}
	.st23{fill:url(#SVGID_18_);}
	.st24{fill:url(#SVGID_19_);}
	.st25{fill:url(#SVGID_20_);}
	.st26{fill:url(#SVGID_21_);}
	.st27{fill:url(#SVGID_22_);}
	.st28{fill:url(#SVGID_23_);}
	.st29{fill:url(#SVGID_24_);}
	.st30{fill:url(#SVGID_25_);}
	.st31{fill:url(#SVGID_26_);}
	.st32{fill:#7A88C2;}
	.st33{fill:#333349;}
	.st34{fill:#FDFDFD;}
	.st35{fill:#333333;}
	.st36{fill:none;stroke:#4D4D4D;stroke-width:4;stroke-linecap:round;stroke-linejoin:round;stroke-miterlimit:10;}
	.st37{fill:#FFFFFF;}
	.st38{fill:none;stroke:#000000;stroke-width:5;stroke-linecap:round;stroke-miterlimit:10;}
	.st39{opacity:0.44;fill:#FFFFFF;stroke:#000000;stroke-width:0.5;stroke-miterlimit:10;}
	.st40{stroke:#000000;stroke-width:4;stroke-linecap:round;stroke-linejoin:round;stroke-miterlimit:10;}
	.st41{fill:none;}
	.st42{font-family:'CirceRounded-Bold';}
	.st43{font-size:23.0609px;}
	.st44{font-family:'CirceRounded-Light';}
	.st45{font-size:16.0423px;}
	.st46{fill:none;stroke:#000000;stroke-width:4;stroke-linecap:round;stroke-linejoin:round;stroke-miterlimit:10;}
</style>
<g id="Layer_1">
	<g>
		<g>
			<line class="st38" x1="-45.1" y1="166.6" x2="27.9" y2="166.6"/>
			<g>
				<polygon points="24.5,178.4 44.8,166.6 24.5,154.9 				"/>
			</g>
		</g>
	</g>
	<g>
		<g>
			<line class="st38" x1="257.5" y1="166.6" x2="325.1" y2="166.6"/>
		</g>
	</g>
</g>
<g id="Layer_2">
</g>
<g id="Layer_3">
</g>
<g id="Layer_4">
	<rect x="34.1" y="23.1" class="st41" width="231.6" height="32"/>
	<text transform="matrix(1 0 0 1 90.0692 39.2432)" class="st42 st43">Make a post</text>
	<rect x="49.8" y="255.4" class="st41" width="187.5" height="121.6"/>
	<text transform="matrix(1 0 0 1 51.0897 266.6353)"><tspan x="0" y="0" class="st44 st45">Simply make a post, adding </tspan><tspan x="5.1" y="19.3" class="st44 st45">an image, description and </tspan><tspan x="43.6" y="38.5" class="st44 st45">your location .</tspan></text>
	<path d="M176.1,169.2c-22.3-32.3-26.4-35.6-26.4-47.5c0-16.3,13.2-29.5,29.5-29.5s29.5,13.2,29.5,29.5c0,11.9-4.1,15.2-26.4,47.5
		C180.7,171.3,177.6,171.3,176.1,169.2L176.1,169.2z M179.1,134c6.8,0,12.3-5.5,12.3-12.3c0-6.8-5.5-12.3-12.3-12.3
		c-6.8,0-12.3,5.5-12.3,12.3C166.8,128.5,172.3,134,179.1,134z"/>
	<line class="st46" x1="140" y1="193.8" x2="140.4" y2="152.2"/>
	<line class="st46" x1="107.9" y1="209.3" x2="114.8" y2="165.9"/>
	<polyline class="st46" points="188.4,170 200.3,195.6 171.9,209.3 139.9,193.8 107.9,209.3 79.6,195.6 100.6,152.6 114.8,165.9 
		140.4,152.2 164.1,166.8 171.8,209.3 	"/>
	<line class="st46" x1="164.1" y1="166.8" x2="166.9" y2="165"/>
</g>
</svg>
