<?xml version="1.0" encoding="utf-8"?>
<!-- Generator: Adobe Illustrator 22.1.0, SVG Export Plug-In . SVG Version: 6.00 Build 0)  -->
<svg version="1.1" xmlns="http://www.w3.org/2000/svg" xmlns:xlink="http://www.w3.org/1999/xlink" x="0px" y="0px"
	 viewBox="0 0 300 350" style="enable-background:new 0 0 300 350;" xml:space="preserve">
<style type="text/css">
	.st0{fill:#FFCC33;}
	.st1{fill:#D9E021;}
	.st2{fill:#8CC63F;}
	.st3{fill:url(#SVGID_1_);}
	.st4{fill:url(#SVGID_2_);}
	.st5{fill:url(#SVGID_3_);}
	.st6{fill:url(#SVGID_4_);}
	.st7{fill:url(#SVGID_5_);}
	.st8{fill:#FEFEFE;}
	.st9{fill:url(#SVGID_6_);}
	.st10{fill:#669900;}
	.st11{fill:#EDEFFD;}
	.st12{fill:url(#SVGID_7_);}
	.st13{fill:url(#SVGID_8_);}
	.st14{fill:url(#SVGID_9_);}
	.st15{fill:url(#SVGID_10_);}
	.st16{fill:url(#SVGID_11_);}
	.st17{fill:url(#SVGID_12_);}
	.st18{fill:url(#SVGID_13_);}
	.st19{fill:url(#SVGID_14_);}
	.st20{fill:url(#SVGID_15_);}
	.st21{fill:url(#SVGID_16_);}
	.st22{fill:url(#SVGID_17_);}
	.st23{fill:url(#SVGID_18_);}
	.st24{fill:url(#SVGID_19_);}
	.st25{fill:url(#SVGID_20_);}
	.st26{fill:url(#SVGID_21_);}
	.st27{fill:url(#SVGID_22_);}
	.st28{fill:url(#SVGID_23_);}
	.st29{fill:url(#SVGID_24_);}
	.st30{fill:url(#SVGID_25_);}
	.st31{fill:url(#SVGID_26_);}
	.st32{fill:#7A88C2;}
	.st33{fill:#333349;}
	.st34{fill:#FDFDFD;}
	.st35{fill:#333333;}
	.st36{fill:none;stroke:#4D4D4D;stroke-width:4;stroke-linecap:round;stroke-linejoin:round;stroke-miterlimit:10;}
	.st37{fill:#FFFFFF;}
	.st38{fill:none;stroke:#000000;stroke-width:5;stroke-linecap:round;stroke-miterlimit:10;}
	.st39{opacity:0.44;fill:#FFFFFF;stroke:#000000;stroke-width:0.5;stroke-miterlimit:10;}
	.st40{fill:none;}
	.st41{font-family:'CirceRounded-Bold';}
	.st42{font-size:23.0609px;}
	.st43{font-family:'CirceRounded-Light';}
	.st44{font-size:16.0423px;}
	.st45{stroke:#000000;stroke-width:4;stroke-linecap:round;stroke-linejoin:round;stroke-miterlimit:10;}
	.st46{fill:none;stroke:#000000;stroke-width:4;stroke-linecap:round;stroke-linejoin:round;stroke-miterlimit:10;}
</style>
<g id="Layer_1">
	<g>
		<g>
			<line class="st38" x1="-41.6" y1="166.6" x2="24.1" y2="166.6"/>
			<g>
				<polygon points="20.7,178.4 41,166.6 20.7,154.9 				"/>
			</g>
		</g>
	</g>
</g>
<g id="Layer_2">
</g>
<g id="Layer_3">
</g>
<g id="Layer_4">
	<rect x="34.4" y="23.1" class="st40" width="231.6" height="32"/>
	<text transform="matrix(1 -1.212154e-04 1.212154e-04 1 122.201 39.2464)" class="st41 st42">Share</text>
	<path d="M130.6,174.3c15.7-5.7,31.4-11.5,47-17.4c4.2-1.6,5.9-5.4,5.1-9.8c-0.8-4.2-3.7-6.7-8.1-6.8c-4.1-0.1-8.3-0.1-12.4,0.6
		c-13.3,2.4-25.8,0.7-37.5-6.4c-3.2-2-6.9-3.2-10.4-4.8c-7.6-3.5-15.2-3.8-23.2-1.2c-3.2,1-6.9,4.9-9.9-0.4
		c-0.1-0.2-0.9-0.2-1.4-0.2c-4.6,0-9.2,0-13.9,0c-1.3,0-2.7,0.1-2.7,1.9c0,1.8,1.2,2.1,2.6,2.1c2.9,0.1,5.7,0.2,8.6,0
		c3-0.2,4.3,0.8,4.2,4c-0.2,4.9-0.1,9.9-0.1,14.8c0,4.9-0.2,9.9,0.1,14.8c0.1,3-1,3.9-3.8,3.7c-2.8-0.2-5.7,0-8.6-0.1
		c-1.4,0-2.6,0.4-2.7,2c-0.1,1.7,1.2,2.1,2.6,2.1c4.6,0.1,9.2,0.1,13.8,0c1.7,0,2.8-0.9,2.6-2.6c-0.3-3.5,1.9-3.8,4.5-4.1
		c3-0.4,6-0.4,9-0.1c8.3,0.9,16,4.2,23.8,6.7C123.4,174.5,127,175.6,130.6,174.3z M91.5,162.3c-8.9,0.2-8.9,0.1-8.9-8.9
		c0-1.3,0-2.6,0-3.8c0.5-4.5-2.2-11,1.2-13.1c6.6-4.1,14.4-7.1,22.7-4.8c2.6,0.7,5.1,1.7,7.6,2.8c6.8,3,13.6,6.2,20.4,9.3
		c3.2,1.4,6.6,3,4.7,7.3c-1.9,4.2-5.1,3.2-8.5,1.6c-5.3-2.5-10.7-4.9-16.1-7.3c-1.5-0.7-3.5-2.2-4.6,0.1c-1.2,2.6,1.4,3,3.1,3.7
		c5.8,2.7,11.5,5.4,17.4,7.9c7,3,12.5-0.3,13.2-7.8c0.2-2.4,1-2.9,3.1-3c8.3-0.5,16.5-1.2,24.8-1.7c3-0.2,6.1-0.2,6.8,3.6
		c0.7,3.6-1.8,5-4.7,6c-14.2,5.2-28.4,10.4-42.5,15.8c-3.4,1.3-6.4,0.8-9.8-0.3C111.7,166.3,102.2,162,91.5,162.3z"/>
	<path d="M231.3,231.6c-3.7-0.8-7.5-1.6-11.2-2.3c-3-0.5-4.2-1.5-3.3-5c2.2-8.8,3.8-17.7,5.7-26.6c0.6-2.8,0.6-6.1,2.2-8.1
		c1.4-1.8,4.4,0.6,6.7,0.6c1.2,0,2.3-0.3,2.6-1.6c0.2-1-0.3-2-1.3-2.3c-3.4-0.8-7.7-2.9-10.1-1.7c-4.1,2.2-6.4,0-9.3-1.4
		c-2.6-1.2-5-2.8-7.6-3.9c-7.2-2.9-14.3-4-21.6,0c-6.1,3.4-12.3,6.7-18.6,9.8c-5.5,2.6-9.6,5.9-7.9,13c-4.5-0.7-8-2.5-11.7-3.8
		c-6.1-2.1-12.2-3.9-18.7-2.2c-2.7,0.7-5.1,2.1-5.5,5.3c-0.4,3.2,1.5,4.9,4,6.3c9.4,5.3,18.8,10.7,28.1,16.1c1.7,0.9,3.3,2,5.3,1.6
		c4.5,2.4,8.9,1.4,13.3-0.3c3.6-0.8,7.1-1.5,10.7-2.3c8.1-1.7,16.1-3.6,24.6-2.4c4.4,0.6,6,1.8,4.3,6.1c-1.4,3.6-0.2,5.6,3.8,6.2
		c4.9,0.7,9.7,1.9,14.5,2.9c1.5,0.3,3.1,0.3,3.5-1.5C234.3,232.4,232.8,231.9,231.3,231.6z M214.7,214c-0.4,2.3-1.2,3.4-3.7,2.9
		c-13.3-2.8-25.8,1.3-38.5,4.4v0c-4.1,0.2-8.2,0.4-12.4,0.7c-8.4-3.4-15.9-8.5-23.7-13c-2.6-1.5-5.3-2.9-7.9-4.5
		c-1-0.6-2.7-1-2.3-2.6c0.3-1.4,1.9-1.6,3.1-1.9c4-0.8,7.9,0,11.7,1.2c5.7,1.9,11.4,3.9,17.1,5.9c4.3,1.5,8.4,0.9,12.4-1.2
		c3.6-1.9,7.5-3.4,11.3-5.1c1.6-0.7,3.1-1.4,2.2-3.4c-0.8-1.8-2.4-1.1-3.7-0.5c-3.9,1.7-7.9,3.3-11.8,5.1c-2.5,1.2-4.7,1.4-6.2-1.1
		c-1.7-2.7-0.4-4.9,2.2-6.3c7.9-4.2,15.7-8.5,23.7-12.3c5-2.4,10.3-1.2,15.3,0.8c2.5,1,4.8,2.4,7.2,3.7c8.9,4.7,8.9,4.7,6.7,14.6
		C216.4,205.5,215.4,209.7,214.7,214z"/>
	<path d="M97.5,117.3c0.5,1.7,0.3,4.4,3.1,3.8c2.5-0.6,1.4-2.8,1-4.4c-0.9-3.5,0.3-4.3,3.8-4.2c25.6,0.1,51.3,0.1,76.9,0
		c3.4,0,4.1,1,3.3,4.1c-1.6,6.4-4.6,11.8-9.5,16.2c-1,0.9-2.4,2-1.2,3.6c1.5,1.8,2.9,0.5,4-0.5c6.7-6,10.3-13.5,11.3-22.5
		c0.4-3.7-0.6-5.2-4.6-5.1c-14,0.2-28,0.1-42,0.1c0,0,0,0,0,0c-13.5,0-27.1,0-40.6,0c-6.6,0-6.8,0.3-6,6.7
		C97.2,115.7,97.3,116.5,97.5,117.3z"/>
	<path d="M154.7,175.9c1.5-0.5,3.4-1.1,2.6-3.2c-0.8-2.1-2.5-1.2-4.1-0.7c-6.1,2.3-12.3,4.4-18.3,6.8c-5.3,2.1-10.4,2.2-15.8,0.2
		c-4.4-1.7-9-2.9-13.5-4.5c-1.3-0.5-2.5-0.6-3.3,0.8c-0.9,1.6,0.2,2.5,1.5,2.9c7.7,2.4,15.1,6,23.4,6.6
		C136.9,183.7,145.5,178.8,154.7,175.9z"/>
	<path d="M141.7,95.9c2.2,1.8,5.5,3,2.7,7.3c6.3-2.6,7-6.5,2.6-10.9c-3.1-3.1-5.8-5.9-2.9-11.1c-3.9,1.1-6,3-6.6,6.2
		C136.9,91.1,139.1,93.7,141.7,95.9z"/>
	<path d="M157.2,96c2.3,1.8,4.9,3.2,2.7,7c6-2.2,6.8-6,2.5-10.6c-2.9-3.1-6.2-5.8-2.6-11.6C151.2,84.8,150.6,90.7,157.2,96z"/>
	<path d="M126.4,95.9c2.2,1.8,5.6,3,2.7,7.4c6.3-2.7,7.1-6.4,2.7-10.9c-3-3.1-5.9-5.9-2.8-11.5C120.7,85,120.2,90.7,126.4,95.9z"/>
	<path d="M191.4,226.8c-6.1,1.6-12.4,2.2-18.3,4.4c-4.7,0.3-9.4-0.6-14,1.2c-5.7-2.4-11.1-5.3-16.5-8.4c-1.3-0.7-2.7-1.3-3.7,0.3
		c-0.8,1.4,0.1,2.3,1.3,3.1c9.5,6.1,19.3,11,31.2,8.1v0c1.1,0.5,2,0.2,2.8-0.7c6-1.3,12-2.6,18-3.9c1.4-0.3,3-0.8,2.6-2.7
		C194.5,226.6,192.9,226.4,191.4,226.8z"/>
	<path d="M176.6,122.1c1.6,0,3.4,0.3,3.7-1.9c0.2-2.4-1.8-2.3-3.3-2.3c-1.5,0-3.5-0.4-3.7,1.9C173.2,122.1,175,122.2,176.6,122.1z"
		/>
	<path d="M162.4,118c-1.5,0.1-3.5,0-3.3,2.4c0.3,2.3,2.3,1.6,4.1,1.9c1.4,0,3.2-0.2,3-2.4C166,117.7,164,117.9,162.4,118z"/>
	<path d="M130.8,119.9c-0.1,2.2,1.6,2.4,3.1,2.3c1.7-0.2,3.7,0.4,3.9-1.9c0.2-2.3-1.9-2.2-3.4-2.3
		C133,117.9,130.9,117.7,130.8,119.9z"/>
	<path d="M116.6,120.1c0.1,2.2,2,2,3.6,2c1.6,0,3.5,0.1,3.5-2.2c0-2.3-2.1-1.8-3.6-2.1C118.6,118.1,116.5,117.8,116.6,120.1z"/>
	<path d="M145,119.9c-0.1,2.2,1.7,2.3,3.4,2.2c1.6,0,3.5,0.3,3.7-1.9c0.2-2.3-1.8-2.2-3.4-2.2C147.1,118,145.1,117.8,145,119.9z"/>
	<path d="M165.2,168c-1.3,0.2-2,1.1-2,2.2c0.1,1.4,1.1,2.2,2.6,2c1.3-0.2,1.9-1.1,1.7-2.4C167.3,168.6,166.5,167.9,165.2,168z"/>
	<path d="M131.7,217.5c-1.3,0-1.8,1-2,2.2c0.4,1.1,0.8,2.1,2.2,2c1.5-0.1,2.3-1,2.2-2.5C133.9,217.8,132.8,217.5,131.7,217.5z"/>
	<rect x="54.5" y="255.4" class="st40" width="187.5" height="121.6"/>
	<text transform="matrix(1 -1.212154e-04 1.212154e-04 1 77.3193 266.6439)"><tspan x="0" y="0" class="st43 st44">Await users arrival to </tspan><tspan x="-12.5" y="19.3" class="st43 st44">proceed with food share</tspan></text>
</g>
</svg>
