<?xml version="1.0" encoding="utf-8"?>
<!-- Generator: Adobe Illustrator 22.1.0, SVG Export Plug-In . SVG Version: 6.00 Build 0)  -->
<svg version="1.1" xmlns="http://www.w3.org/2000/svg" xmlns:xlink="http://www.w3.org/1999/xlink" x="0px" y="0px"
	 viewBox="0 0 300 350" style="enable-background:new 0 0 300 350;" xml:space="preserve">
<style type="text/css">
	.st0{fill:#FFCC33;}
	.st1{fill:#D9E021;}
	.st2{fill:#8CC63F;}
	.st3{fill:url(#SVGID_1_);}
	.st4{fill:url(#SVGID_2_);}
	.st5{fill:url(#SVGID_3_);}
	.st6{fill:url(#SVGID_4_);}
	.st7{fill:url(#SVGID_5_);}
	.st8{fill:#FEFEFE;}
	.st9{fill:url(#SVGID_6_);}
	.st10{fill:#669900;}
	.st11{fill:#EDEFFD;}
	.st12{fill:url(#SVGID_7_);}
	.st13{fill:url(#SVGID_8_);}
	.st14{fill:url(#SVGID_9_);}
	.st15{fill:url(#SVGID_10_);}
	.st16{fill:url(#SVGID_11_);}
	.st17{fill:url(#SVGID_12_);}
	.st18{fill:url(#SVGID_13_);}
	.st19{fill:url(#SVGID_14_);}
	.st20{fill:url(#SVGID_15_);}
	.st21{fill:url(#SVGID_16_);}
	.st22{fill:url(#SVGID_17_);}
	.st23{fill:url(#SVGID_18_);}
	.st24{fill:url(#SVGID_19_);}
	.st25{fill:url(#SVGID_20_);}
	.st26{fill:url(#SVGID_21_);}
	.st27{fill:url(#SVGID_22_);}
	.st28{fill:url(#SVGID_23_);}
	.st29{fill:url(#SVGID_24_);}
	.st30{fill:url(#SVGID_25_);}
	.st31{fill:url(#SVGID_26_);}
	.st32{fill:#7A88C2;}
	.st33{fill:#333349;}
	.st34{fill:#FDFDFD;}
	.st35{fill:#333333;}
	.st36{fill:none;stroke:#4D4D4D;stroke-width:4;stroke-linecap:round;stroke-linejoin:round;stroke-miterlimit:10;}
	.st37{fill:#FFFFFF;}
	.st38{fill:none;stroke:#000000;stroke-width:5;stroke-linecap:round;stroke-miterlimit:10;}
	.st39{opacity:0.44;fill:#FFFFFF;stroke:#000000;stroke-width:0.5;stroke-miterlimit:10;}
	.st40{fill:none;}
	.st41{font-family:'CirceRounded-Bold';}
	.st42{font-size:23.0609px;}
	.st43{font-family:'CirceRounded-Light';}
	.st44{font-size:16.0423px;}
	.st45{stroke:#000000;stroke-width:4;stroke-linecap:round;stroke-linejoin:round;stroke-miterlimit:10;}
	.st46{fill:none;stroke:#000000;stroke-width:4;stroke-linecap:round;stroke-linejoin:round;stroke-miterlimit:10;}
</style>
<g id="Layer_1">
	<g>
		<g>
			<line class="st38" x1="-42.5" y1="166.6" x2="25.1" y2="166.6"/>
			<g>
				<polygon points="21.7,178.4 42,166.6 21.7,154.9 				"/>
			</g>
		</g>
	</g>
	<g>
		<g>
			<line class="st38" x1="258.4" y1="166.6" x2="324.1" y2="166.6"/>
		</g>
	</g>
</g>
<g id="Layer_2">
</g>
<g id="Layer_3">
</g>
<g id="Layer_4">
	<rect x="34.3" y="23.1" class="st40" width="231.6" height="32"/>
	<text transform="matrix(1 0 0 1 66.7127 39.2432)" class="st41 st42">Approve request</text>
	<rect x="56.8" y="255.4" class="st40" width="187.5" height="121.6"/>
	<text transform="matrix(1 0 0 1 66.4735 266.6353)"><tspan x="0" y="0" class="st43 st44">Decide who  you wish to </tspan><tspan x="2.8" y="19.3" class="st43 st44">share your food with on </tspan><tspan x="14.4" y="38.5" class="st43 st44">your listings page by </tspan><tspan x="-3.8" y="57.8" class="st43 st44">accepting a users request.</tspan></text>
	<path d="M113.7,139.9l-7.4-7.4c-0.4-0.4-0.4-1.2,0-1.6l1.6-1.6c0.4-0.4,1.2-0.4,1.6,0l5,5l10.6-10.6c0.4-0.4,1.2-0.4,1.6,0l1.6,1.6
		c0.4,0.4,0.4,1.2,0,1.6l-13,13C114.8,140.3,114.1,140.3,113.7,139.9L113.7,139.9z"/>
	<line class="st45" x1="133.5" y1="134.5" x2="178.5" y2="134.5"/>
	<line class="st45" x1="133.5" y1="152" x2="178.5" y2="152"/>
	<circle cx="116.9" cy="152" r="5.3"/>
	<line class="st45" x1="133.5" y1="169.5" x2="178.5" y2="169.5"/>
	<circle cx="116.9" cy="169.5" r="5.3"/>
	<line class="st45" x1="133.5" y1="187.1" x2="178.5" y2="187.1"/>
	<circle cx="116.9" cy="187.1" r="5.3"/>
	<path class="st40" d="M191.2,94.2h-11.9c-1.2,0-2.1,1-2.1,2.1v11.9c0,1.2-1,2.1-2.1,2.1h-60.4c-1.2,0-2.1-1-2.1-2.1V96.4
		c0-1.2-1-2.1-2.1-2.1H98.4c-1.2,0-2.1,1-2.1,2.1v114.3c0,1.2,1,2.1,2.1,2.1h92.7c1.2,0,2.1-1,2.1-2.1V96.4
		C193.3,95.2,192.3,94.2,191.2,94.2z"/>
	<path class="st40" d="M191.2,94.2h-11.9c-1.2,0-2.1,1-2.1,2.1v11.9c0,1.2-1,2.1-2.1,2.1h-60.4c-1.2,0-2.1-1-2.1-2.1V96.4
		c0-1.2-1-2.1-2.1-2.1H98.4c-1.2,0-2.1,1-2.1,2.1v114.3c0,1.2,1,2.1,2.1,2.1h92.7c1.2,0,2.1-1,2.1-2.1V96.4
		C193.3,95.2,192.3,94.2,191.2,94.2z"/>
	<g>
		<path class="st40" d="M191.2,94.2h-11.9c-1.2,0-2.1,1-2.1,2.1v11.9c0,1.2-1,2.1-2.1,2.1h-60.4c-1.2,0-2.1-1-2.1-2.1V96.4
			c0-1.2-1-2.1-2.1-2.1H98.4c-1.2,0-2.1,1-2.1,2.1v114.3c0,1.2,1,2.1,2.1,2.1h92.7c1.2,0,2.1-1,2.1-2.1V96.4
			C193.3,95.2,192.3,94.2,191.2,94.2z"/>
		<path d="M194.8,89.5H165h-2.1v-3.8c0-4.1-3.4-7.5-7.5-7.5h-10.5h-10.5c-4.1,0-7.5,3.4-7.5,7.5v3.8h-2.1H94.8
			c-2.7,0-4.9,2.2-4.9,4.9v118.3c0,2.7,2.2,4.9,4.9,4.9h100c2.7,0,4.9-2.2,4.9-4.9V94.3C199.7,91.7,197.5,89.5,194.8,89.5z
			 M144.5,81.1c3,0,5.5,2.5,5.5,5.5s-2.5,5.5-5.5,5.5s-5.5-2.5-5.5-5.5S141.5,81.1,144.5,81.1z M193.3,210.7c0,1.2-1,2.1-2.1,2.1
			H98.4c-1.2,0-2.1-1-2.1-2.1V96.4c0-1.2,1-2.1,2.1-2.1h11.9c1.2,0,2.1,1,2.1,2.1v11.9c0,1.2,1,2.1,2.1,2.1H175c1.2,0,2.1-1,2.1-2.1
			V96.4c0-1.2,1-2.1,2.1-2.1h11.9c1.2,0,2.1,1,2.1,2.1V210.7z"/>
	</g>
</g>
</svg>
