<?xml version="1.0" encoding="utf-8"?>
<!-- Generator: Adobe Illustrator 22.1.0, SVG Export Plug-In . SVG Version: 6.00 Build 0)  -->
<svg version="1.1" xmlns="http://www.w3.org/2000/svg" xmlns:xlink="http://www.w3.org/1999/xlink" x="0px" y="0px"
	 viewBox="0 0 300 350" style="enable-background:new 0 0 300 350;" xml:space="preserve">
<style type="text/css">
	.st0{fill:#99CC33;}
	.st1{fill:#9DDD48;}
	.st2{fill:#D9E021;}
	.st3{fill:#8CC63F;}
	.st4{fill:url(#SVGID_1_);}
	.st5{fill:url(#SVGID_2_);}
	.st6{fill:url(#SVGID_3_);}
	.st7{fill:url(#SVGID_4_);}
	.st8{fill:url(#SVGID_5_);}
	.st9{fill:#FEFEFE;}
	.st10{fill:url(#SVGID_6_);}
	.st11{fill:#669900;}
	.st12{fill:#EDEFFD;}
	.st13{fill:url(#SVGID_7_);}
	.st14{fill:url(#SVGID_8_);}
	.st15{fill:url(#SVGID_9_);}
	.st16{fill:url(#SVGID_10_);}
	.st17{fill:url(#SVGID_11_);}
	.st18{fill:url(#SVGID_12_);}
	.st19{fill:url(#SVGID_13_);}
	.st20{fill:url(#SVGID_14_);}
	.st21{fill:url(#SVGID_15_);}
	.st22{fill:url(#SVGID_16_);}
	.st23{fill:url(#SVGID_17_);}
	.st24{fill:url(#SVGID_18_);}
	.st25{fill:url(#SVGID_19_);}
	.st26{fill:url(#SVGID_20_);}
	.st27{fill:url(#SVGID_21_);}
	.st28{fill:url(#SVGID_22_);}
	.st29{fill:url(#SVGID_23_);}
	.st30{fill:url(#SVGID_24_);}
	.st31{fill:url(#SVGID_25_);}
	.st32{fill:url(#SVGID_26_);}
	.st33{fill:#7A88C2;}
	.st34{fill:#333349;}
	.st35{fill:#FDFDFD;}
	.st36{fill:#333333;}
	.st37{fill:none;stroke:#4D4D4D;stroke-width:4;stroke-linecap:round;stroke-linejoin:round;stroke-miterlimit:10;}
	.st38{fill:none;stroke:#1A1A1A;stroke-width:5;stroke-linecap:round;stroke-miterlimit:10;}
	.st39{fill:#1A1A1A;}
	.st40{opacity:0.44;fill:#FFFFFF;stroke:#000000;stroke-width:0.5;stroke-miterlimit:10;}
	.st41{fill:none;}
	.st42{font-family:'CirceRounded-Bold';}
	.st43{font-size:23.0609px;}
	.st44{font-family:'CirceRounded-Light';}
	.st45{font-size:16.0423px;}
	.st46{fill:none;stroke:#1A1A1A;stroke-width:4;stroke-linecap:round;stroke-linejoin:round;stroke-miterlimit:10;}
	.st47{stroke:#000000;stroke-width:4;stroke-linecap:round;stroke-linejoin:round;stroke-miterlimit:10;}
	.st48{fill:none;stroke:#000000;stroke-width:4;stroke-linecap:round;stroke-linejoin:round;stroke-miterlimit:10;}
	.st49{fill:#1A1A1A;stroke:#000000;stroke-width:4;stroke-linecap:round;stroke-linejoin:round;stroke-miterlimit:10;}
</style>
<g id="Layer_1">
	<g>
		<g>
			<path class="st38" d="M254.9,121.6c25.6-22.7,53.9-22.4,80.2-5.3"/>
		</g>
	</g>
</g>
<g id="Layer_2">
</g>
<g id="Layer_3">
</g>
<g id="Layer_4">
	<rect x="40.2" y="207.1" class="st41" width="231.6" height="32"/>
	<text transform="matrix(1 1.130684e-04 -1.130684e-04 1 58.5118 223.2322)" class="st39 st42 st43">Food to share?</text>
	<g>
		<g>
			<path class="st39" d="M134.8,67.1c0.8-5.3,0.5-9.9-4.5-13.9c-5.5-4.5-8-11.4-9.4-18.4c-1.1-5.8,1.6-9.2,7.6-9.6
				c1.9-0.1,3.8-0.1,5.7,0c3.1,0.2,5.7,0.3,6.9-3.7c0.7-2.4,3.4-3,6-3c7.6,0,15.3-0.1,22.9,0c5.4,0.1,7.7,2.7,7.6,8.1
				c-0.1,8.3-2.4,16-6.3,23.3c-6.4,11.8-4.6,24.2,5,33.8c3.8,3.8,8.1,7.2,12,10.9c13.7,13.3,21.1,29,17.9,48.5
				c-1.9,11.7-8.1,20.6-18.5,26.4c-1,0.5-1.9,1.1-2.9,1.7c-0.1,0.1-0.1,0.3-0.1,0.4c17.1,3,36.6-12.5,38.3-30.2
				c1.4-14.5-3.6-26.6-13.2-37c-3.5-3.8-7.6-7.3-11.5-10.7c-8-6.9-12.8-15.4-12.9-26.1c0-3.1-1.2-3.8-4-3.6c-2.9,0.2-5.7,0-8.6,0
				c-1.5,0-3.1,0-3.2-1.9c-0.1-1.9,1.5-2.2,3-2.2c2.5,0,5.2-0.4,7.6,0c4.6,0.8,7-1.4,8.9-5.2c1.7-3.6,3.4-7.2,4.7-10.9
				c0.9-2.4,0.2-3.6-2.6-3.3c-2.2,0.2-4.5,0.1-6.7,0c-1.4,0-2.5-0.6-2.4-2.3c0.1-1.4,1.1-1.7,2.4-1.7c2.4,0,4.8,0,7.2-0.1
				c3.4,0,4.3-2,4.3-5c-0.1-3.1-2.1-3.6-4.5-3.7c-2.4-0.1-4.8,0-7.2-0.1c-1.3,0-2.1-0.8-2.1-2.1c0-1,0.6-1.9,1.8-1.9
				c4-0.1,8.1-1,11.8,0.7c3.7,1.7,5.7,4.9,4.8,8.9c-1.7,8.1-3.2,16.4-8,23.3c-4.7,6.8-3.6,13.6-1.3,20.5c2,6.1,6.1,10.7,11,14.7
				c9,7.3,16.8,15.6,21.4,26.5c8.8,20.7,2.7,40.5-16.3,52.5c-0.4,0.2-0.6,0.6-1.9,1.7c3.3,0,5.8-0.1,8.2,0c2,0.2,5.3-1.1,5.5,1.9
				c0.1,3.3-3.3,2.2-5.3,2.2c-31.2,0.1-62.5,0.1-93.7,0.1c-7.2,0-14.3-1-21.1-3.5c-0.6-0.2-1.2-0.4-1.8-0.7
				c-3.7-1.5-6.9-4.9-10.4-5.5c-3.3-0.6-5.8,4.1-9.5,5.4c-9.1,3.2-21-1.1-25.9-9.4c-1.4-2.3-0.8-3.7,1.1-5.2c3.8-3,7.5-4.5,18.4-7
				c-0.7-3.3-3.4-2.3-5.4-2.4c-11.3-0.6-17.7-7.5-17.8-18.9c0-3.2,1.4-4.1,4.3-4.3c10.9-0.7,16.2,2.8,21.3,14.7
				c0.3-5.6,0.3-10.4,1.5-15.1c3.1-11.7,10-20.8,18.7-28.8c2.9-2.7,6.1-5.1,8.9-8c6.1-6.2,9.1-13.7,9.1-22.4c0-2.3-0.5-4.4-1.8-6.3
				c-5.3-7.8-7.7-16.7-9.4-25.8c-0.9-4.9,2.3-9.3,7.3-9.9c2.7-0.3,5.4-0.2,8.1-0.2c1.6,0,3,0.5,2.9,2.3c-0.1,1.9-1.7,2-3.2,2
				c-2.2,0-4.5-0.1-6.7,0.1c-2.5,0.2-4.1,1.4-4,4.3c0.1,2.7,1.4,4.1,4.1,4.3c2.1,0.1,4.1,0.1,6.2,0.1c1.6,0,3.6-0.4,3.7,1.9
				c0.1,2.6-2.2,2.1-3.9,2.1c-1.9,0.1-3.8,0.1-5.7,0c-2.3-0.1-2.8,0.8-2.2,2.9c1.7,5.3,4,10.4,7.1,15.1c1.1,1.6,2.6,1.5,4.2,1.5
				c2.9,0,5.7,0,8.6,0.1c1.3,0,2.1,0.7,2.2,2c0,1.4-0.8,2-2.1,2.1c-0.2,0-0.3,0-0.5,0c-3.5,0.2-7.9-1.5-10.1,0.8
				c-1.9,2-1.1,6.3-1.7,9.6c-1.7,8.2-6.2,14.5-12.6,19.7c-7.1,5.9-13.7,12.3-18.5,20.4c-5.4,9.2-7,19-5.4,29.5
				c2.2,13.8,13,24,28.6,27.1c3.4,0.7,6.9,1.4,10.4,1.1c0.2-1.2-0.7-1.4-1.4-1.8c-20.9-10.1-23.5-32.2-19.6-48.1
				c3.2-12.9,11.4-22.6,21-31.2c3.6-3.3,7.7-6.2,10.8-10.1c1.3,0.6,0.4,3,2.4,3c-1.2,2.6-3.4,4.2-5.5,5.9
				c-6.8,5.6-13.1,11.6-18.1,18.9c-7,10.3-9.5,21.5-7.3,33.6c2.6,15.2,14.2,25.7,31.3,28.7c12,2.1,24.2,1.9,36.2,0.6
				c26-2.8,40.1-22.3,34.6-46.9c-3-13.6-11.4-23.7-21.8-32.2c-10-8.1-16.8-17.7-17-31.1c0-2.3-1.2-2.5-3-2.5c-1.9,0-3,0.5-2.9,2.7
				c0.1,2.4,0.1,4.8-0.1,7.2c-0.1,1.2-0.9,2.1-2.2,2c-1.1-0.1-1.7-1-1.7-2c-0.1-2.4-0.1-4.8-0.1-7.2c0-1.3,0-2.7-1.9-2.5
				c-1.7,0.2-1.4,1.4-1.4,2.5c0,3.8,0.2,7.7-0.1,11.5c-0.2,2.4,1.8,6.6-2.2,6.6c-3.6,0-1.7-4.1-1.9-6.3c-0.3-3.6-0.1-7.3-0.1-11
				c0.1-2.2-0.1-3.6-3-3.5c-2.4,0.1-3.5,0.6-3.3,3.2c0.1,1.5-0.4,3.1-0.6,4.7C137.4,67.1,136.1,67.1,134.8,67.1z M150.8,55.3
				C150.8,55.3,150.8,55.3,150.8,55.3c3.3,0,6.7,0,10-0.1c1.4,0,2.7-0.1,3.7-1.6c3.5-5.9,6.8-11.8,8.1-18.7c0.2-1.3,1.6-3.6-1.3-3.4
				c-2,0.1-5.4-2-5.5,2.7c0,3.5-1,6.9-2.6,10.1c-0.7,1.4-1.4,3.2-3.5,2.2c-1.7-0.9-1-2.4-0.3-3.7c1.3-2.3,0.9-3.4-2-3.4
				c-9.2,0.1-18.4,0.1-27.7,0c-2.5,0-3,0.8-2,3.1c3.5,8.5,9.7,12.8,18.9,12.8C148,55.3,149.4,55.3,150.8,55.3z M153,35.4
				c1.1,0,2.2,0,3.3,0c5.5-0.1,5.5-0.1,3.4-4.9c-0.9-2.1,0.1-3,2.1-3.2c2.8-0.2,5.7-0.1,8.6-0.2c1.5,0,3-0.2,3-2.2
				c0.1-2-1.4-2.2-2.9-2.2c-7.8,0-15.5,0-23.3,0c-1.6,0-2.6,0.6-3,2.4c-1.4,7.1,0.9,10.2,8,10.2C152.4,35.4,152.7,35.4,153,35.4z
				 M74.9,156.4c-6.8-1.4-12.3-0.4-16.8,2.9c-1.4,1-2.3,1.7-0.8,3.7c4.9,6.4,15.7,8.3,22.3,3.7c0.9-0.6,2.2-1,2.1-2.3
				c-0.2-1.4-1.5-2-2.7-2.4c-3.4-1.2-6.9-0.8-10.3,0.1c-1.5,0.4-2.6,0.1-3.1-1.3c-0.5-1.6,0.7-2.3,2-2.7
				C69.7,157.5,72,157,74.9,156.4z M68.4,139.9c-1.8-7.5-7.7-11.5-14-10.7c-1.1,0.1-1.6,0.4-1.9,1.6c-1.3,6.2,5.2,13.1,11.9,12.4
				c-0.5-2.1-2.6-2.7-3.9-4c-1-1-2.7-1.7-1.4-3.4c1.4-1.9,2.8-0.8,4.1,0.2C64.8,137.1,66.2,138.2,68.4,139.9z M133.1,35.4
				c1.6,0,3.2,0,4.8,0c1.3-0.1,3.2,0.5,2.7-2c-0.4-1.6,0.3-4.1-2.8-3.9c-3.2,0.1-6.4,0.1-9.5,0c-1.9,0-3.1,0.8-3.2,2.7
				c-0.1,2.2,1.3,3.1,3.3,3.2C129.9,35.4,131.5,35.3,133.1,35.4z"/>
		</g>
		<g>
			<path class="st39" d="M107,66.2c-0.3,8.1-3.1,14.3-8.7,19.1c-7,6.1-13.9,12.1-19.3,19.8c-0.8,1.2-1.9,2.5-3.5,1.2
				c-1.5-1.2-0.7-2.5,0.2-3.8c5.1-7.2,11.4-13.2,18.1-18.9c1.8-1.5,3.7-3.1,5-5.1c4-6.2,5.5-12.2,1-19.1c-1.3-2-5.1-5.7-1.5-7.6
				c3.7-1.9,3.5,3.4,4.8,5.5C104.9,60.2,107.8,62.9,107,66.2z"/>
		</g>
		<g>
			<path class="st39" d="M203.5,51.4c1.3,0.3,1.9,1.3,1.4,2.7c-0.7,1.8-1.5,3.5-2.4,5.2c-4.7,9.1-3.4,16.3,4.5,23.2
				c6.4,5.5,12.6,11.2,17.7,17.9c0.7,0.9,1.3,1.8,2,2.7c0.9,1.2,1.1,2.4-0.3,3.3c-1.1,0.7-2.2,0.4-2.9-0.7
				c-6.2-9.3-15.4-15.6-22.8-23.7c-6.4-6.9-7-15.5-2.5-23.6c0.9-1.7,1.8-3.4,2.5-5.1C201.4,52.2,202,51.4,203.5,51.4z"/>
		</g>
		<g>
			<path class="st39" d="M188.5,136.7c0,8.1-9.8,18.7-17.1,19.1c-1,0.1-2.4-0.6-2.9,0.8c-2.1,5.7-4.1,1.9-5.7-0.1
				c-9-11.1-8.9-6.9,0.3-17.5c1.7-2,3.9-5.6,5.8,0.2c0.3,1,2,1.1,3,0.5c1.3-0.7,0.4-1.6-0.1-2.4c-1.5-2.8-3.1-5.5-4.7-8.3
				c-0.5-0.8-1.4-2-1.2-2.5c2.1-4.6,7.2-5.2,10.9-7.6c2.6-1.6,3.5,1,4.5,2.8c1.8,3.3,3.7,6.7,5.5,10
				C187.7,133.5,188.5,135.2,188.5,136.7z M180.9,144.2c2.1-3.4,4.4-5.8,2.9-9.1c-1.6-3.4-3.5-6.7-5.5-10c-1.9-3.2-3.5-0.1-5.1,0.4
				c-1.5,0.5-2.8,1.4-1.4,3.5C174.8,133.9,177.6,138.8,180.9,144.2z M168.9,151.5c1.7,0,3.3,0.1,4.9,0c2-0.1,4.2-0.7,4-3.1
				c-0.2-2.1-1.1-4.4-4.1-4.3c-1.6,0.1-3.2,0.2-4.8-0.1c-3.6-0.7-7.4,0.2-7.5,3.6C161.4,151.4,165.2,152.6,168.9,151.5z"/>
		</g>
		<g>
			<path class="st39" d="M151.4,108.1c-2.3,4.1-4,7.9-6.5,11.1c-4.3,5.6-6.9-1.1-10.2-2.1c-2.1-0.6-6.4-1.5-3.6-5.9
				c0.9-1.3,1.6-2.7,2.4-4.1c8.3-14.3,5.1-12.4,23.7-12.4c3.1,0,5.5,1.4,7.3,3.9c1.6,2.3,2.3,5.7,6.4,4.9c0.7-0.1,1.3,0.9,1.2,1.8
				c0,0.6-0.2,1.3-0.3,1.9c-2.8,12.7-5.4,14.1-17.7,9.8c-1.9-0.7-3.6-1.7-1.7-3.6C154.5,111.2,152.6,110.2,151.4,108.1z M147.6,98.9
				c-2.8-0.1-4.7,0.9-6,3c-1.7,2.9-3.3,5.8-5.1,8.6c-2,3,0.8,3.4,2.3,4.5c1.8,1.3,3.3,1.7,4.5-0.9c1.9-4,4-8,6.3-11.8
				C151.4,99.1,149.7,98.7,147.6,98.9z M166.7,110.3c-1.9-3-3.6-6.2-5.7-9.1c-1.1-1.6-2.8-3.1-4.8-1.4c-1.5,1.3-3,2.8-1.4,5.3
				c1.5,2.3,2.7,4.7,3.7,7.2c1.1,2.7,3.6,2.5,5.6,2.4C166.4,114.6,165.3,111.7,166.7,110.3z"/>
		</g>
		<g>
			<path class="st39" d="M139.6,131.3c0,1.3,0,2.5,0,3.8c0.1,2.5-0.1,4.9-3.6,3.1c-1.7-0.8-2.6,0.3-3,1.3c-0.7,1.9,1.3,1.7,2.3,2
				c2.6,0.8,5.2,1.4,7.8,2.1c0.9,0.2,2.2,0.3,2.7,0.9c3.2,4.6-1.2,8.5-1.5,12.8c-0.2,2.2-1.9,2.8-3.9,2.2c-4.9-1.4-9.7-2.9-14.6-4.3
				c-0.6-0.2-1.1-0.6-1.7-0.9c-6.2-4.2-8-20.3-2.9-25.8c0.8-0.9,2.7-1.6,2.1-2.9c-2.4-5.6,1.2-4.5,4.3-4.2c0.8,0.1,1.6,0.1,2.4,0.1
				C140.4,122.6,139.1,121.3,139.6,131.3z M125.9,143.5c-2-0.2-2.6,0.3-2.2,1.6c0.8,2.5,1,5.5,4.1,6.5c3.6,1.1,7.3,2.1,10.9,3.2
				c2.2,0.7,2.5-1,2.6-2.3c0.2-1.7,2.6-4-0.1-4.9C136,145.8,130.5,144.7,125.9,143.5z M130.6,125.7c-2.8,1.7-5.4,4.9-8,7.8
				c-1.2,1.3-1.7,3.3,0.2,4.6c1.6,1.1,3.4,2,5.2,0.3c2.1-1.9,4.2-3.9,6.3-5.8c1.7-1.6,0.9-3.6,0.6-5.4
				C134.6,125.6,132.8,126.2,130.6,125.7z"/>
		</g>
	</g>
	<rect x="60.9" y="247.4" class="st41" width="187.5" height="121.6"/>
	<text transform="matrix(1 1.130684e-04 -1.130684e-04 1 61.8655 258.6247)"><tspan x="0" y="0" class="st39 st44 st45">Have food that will only go </tspan><tspan x="10.8" y="19.3" class="st39 st44 st45">to waste? Want to share </tspan><tspan x="7.9" y="38.5" class="st39 st44 st45">food  with a community?</tspan></text>
</g>
</svg>
