<?xml version="1.0" encoding="utf-8"?>
<!-- Generator: Adobe Illustrator 22.1.0, SVG Export Plug-In . SVG Version: 6.00 Build 0)  -->
<svg version="1.1" xmlns="http://www.w3.org/2000/svg" xmlns:xlink="http://www.w3.org/1999/xlink" x="0px" y="0px"
	 viewBox="0 0 300 350" style="enable-background:new 0 0 300 350;" xml:space="preserve">
<style type="text/css">
	.st0{fill:#99CC33;}
	.st1{fill:#9DDD48;}
	.st2{fill:#D9E021;}
	.st3{fill:#8CC63F;}
	.st4{fill:url(#SVGID_1_);}
	.st5{fill:url(#SVGID_2_);}
	.st6{fill:url(#SVGID_3_);}
	.st7{fill:url(#SVGID_4_);}
	.st8{fill:url(#SVGID_5_);}
	.st9{fill:#FEFEFE;}
	.st10{fill:url(#SVGID_6_);}
	.st11{fill:#669900;}
	.st12{fill:#EDEFFD;}
	.st13{fill:url(#SVGID_7_);}
	.st14{fill:url(#SVGID_8_);}
	.st15{fill:url(#SVGID_9_);}
	.st16{fill:url(#SVGID_10_);}
	.st17{fill:url(#SVGID_11_);}
	.st18{fill:url(#SVGID_12_);}
	.st19{fill:url(#SVGID_13_);}
	.st20{fill:url(#SVGID_14_);}
	.st21{fill:url(#SVGID_15_);}
	.st22{fill:url(#SVGID_16_);}
	.st23{fill:url(#SVGID_17_);}
	.st24{fill:url(#SVGID_18_);}
	.st25{fill:url(#SVGID_19_);}
	.st26{fill:url(#SVGID_20_);}
	.st27{fill:url(#SVGID_21_);}
	.st28{fill:url(#SVGID_22_);}
	.st29{fill:url(#SVGID_23_);}
	.st30{fill:url(#SVGID_24_);}
	.st31{fill:url(#SVGID_25_);}
	.st32{fill:url(#SVGID_26_);}
	.st33{fill:#7A88C2;}
	.st34{fill:#333349;}
	.st35{fill:#FDFDFD;}
	.st36{fill:#333333;}
	.st37{fill:none;stroke:#4D4D4D;stroke-width:4;stroke-linecap:round;stroke-linejoin:round;stroke-miterlimit:10;}
	.st38{fill:none;stroke:#1A1A1A;stroke-width:5;stroke-linecap:round;stroke-miterlimit:10;}
	.st39{fill:#1A1A1A;}
	.st40{opacity:0.44;fill:#FFFFFF;stroke:#000000;stroke-width:0.5;stroke-miterlimit:10;}
	.st41{fill:none;}
	.st42{font-family:'CirceRounded-Bold';}
	.st43{font-size:23.0609px;}
	.st44{font-family:'CirceRounded-Light';}
	.st45{font-size:16.0423px;}
	.st46{fill:none;stroke:#1A1A1A;stroke-width:4;stroke-linecap:round;stroke-linejoin:round;stroke-miterlimit:10;}
	.st47{stroke:#000000;stroke-width:4;stroke-linecap:round;stroke-linejoin:round;stroke-miterlimit:10;}
	.st48{fill:none;stroke:#000000;stroke-width:4;stroke-linecap:round;stroke-linejoin:round;stroke-miterlimit:10;}
	.st49{fill:#1A1A1A;stroke:#000000;stroke-width:4;stroke-linecap:round;stroke-linejoin:round;stroke-miterlimit:10;}
</style>
<g id="Layer_1">
	<g>
		<g>
			<path class="st38" d="M-44.1,121.6c25.6-22.7,53.9-22.4,80.2-5.3"/>
			<g>
				<polygon class="st39" points="26.2,123.9 49.5,126.6 40.2,105.1 				"/>
			</g>
		</g>
	</g>
	<g>
		<g>
			<path class="st38" d="M252.9,121.6c25.6-22.7,53.9-22.4,80.2-5.3"/>
		</g>
	</g>
</g>
<g id="Layer_2">
</g>
<g id="Layer_3">
</g>
<g id="Layer_4">
	<rect x="34.2" y="207.1" class="st41" width="231.6" height="32"/>
	<text transform="matrix(1 0 0 1 42.2371 223.2431)" class="st39 st42 st43">Approve request</text>
	<rect x="56.3" y="247.4" class="st41" width="187.5" height="121.6"/>
	<text transform="matrix(1 0 0 1 65.9394 258.6353)"><tspan x="0" y="0" class="st39 st44 st45">Decide who  you wish to </tspan><tspan x="2.8" y="19.3" class="st39 st44 st45">share your food with on </tspan><tspan x="14.4" y="38.5" class="st39 st44 st45">your listings page by </tspan><tspan x="-3.8" y="57.8" class="st39 st44 st45">accepting a users request.</tspan></text>
	<g>
		<path class="st39" d="M118.9,94.9l-7.4-7.4c-0.4-0.4-0.4-1.2,0-1.6l1.6-1.6c0.4-0.4,1.2-0.4,1.6,0l5,5l10.6-10.6
			c0.4-0.4,1.2-0.4,1.6,0l1.6,1.6c0.4,0.4,0.4,1.2,0,1.6l-13,13C120,95.3,119.3,95.3,118.9,94.9L118.9,94.9z"/>
		<line class="st49" x1="138.7" y1="89.5" x2="183.7" y2="89.5"/>
		<line class="st49" x1="138.7" y1="107" x2="183.7" y2="107"/>
		<circle class="st39" cx="122.1" cy="107" r="5.3"/>
		<line class="st49" x1="138.7" y1="124.5" x2="183.7" y2="124.5"/>
		<circle class="st39" cx="122.1" cy="124.5" r="5.3"/>
		<line class="st49" x1="138.7" y1="142.1" x2="183.7" y2="142.1"/>
		<circle class="st39" cx="122.1" cy="142.1" r="5.3"/>
		<path class="st41" d="M196.4,49.2h-11.9c-1.2,0-2.1,1-2.1,2.1v11.9c0,1.2-1,2.1-2.1,2.1h-60.4c-1.2,0-2.1-1-2.1-2.1V51.4
			c0-1.2-1-2.1-2.1-2.1h-11.9c-1.2,0-2.1,1-2.1,2.1v114.3c0,1.2,1,2.1,2.1,2.1h92.7c1.2,0,2.1-1,2.1-2.1V51.4
			C198.5,50.2,197.5,49.2,196.4,49.2z"/>
		<path class="st41" d="M196.4,49.2h-11.9c-1.2,0-2.1,1-2.1,2.1v11.9c0,1.2-1,2.1-2.1,2.1h-60.4c-1.2,0-2.1-1-2.1-2.1V51.4
			c0-1.2-1-2.1-2.1-2.1h-11.9c-1.2,0-2.1,1-2.1,2.1v114.3c0,1.2,1,2.1,2.1,2.1h92.7c1.2,0,2.1-1,2.1-2.1V51.4
			C198.5,50.2,197.5,49.2,196.4,49.2z"/>
		<g>
			<path class="st39" d="M200,44.5h-29.9H168v-3.8c0-4.1-3.4-7.5-7.5-7.5H150h-10.5c-4.1,0-7.5,3.4-7.5,7.5v3.8h-2.1H100
				c-2.7,0-4.9,2.2-4.9,4.9v118.3c0,2.7,2.2,4.9,4.9,4.9h100c2.7,0,4.9-2.2,4.9-4.9V49.3C204.9,46.7,202.7,44.5,200,44.5z
				 M149.7,36.1c3,0,5.5,2.5,5.5,5.5s-2.5,5.5-5.5,5.5s-5.5-2.5-5.5-5.5S146.7,36.1,149.7,36.1z M198.5,165.7c0,1.2-1,2.1-2.1,2.1
				h-92.7c-1.2,0-2.1-1-2.1-2.1V51.4c0-1.2,1-2.1,2.1-2.1h11.9c1.2,0,2.1,1,2.1,2.1v11.9c0,1.2,1,2.1,2.1,2.1h60.4
				c1.2,0,2.1-1,2.1-2.1V51.4c0-1.2,1-2.1,2.1-2.1h11.9c1.2,0,2.1,1,2.1,2.1V165.7z"/>
		</g>
	</g>
</g>
</svg>
