<?xml version="1.0" encoding="utf-8"?>
<!-- Generator: Adobe Illustrator 22.1.0, SVG Export Plug-In . SVG Version: 6.00 Build 0)  -->
<svg version="1.1" xmlns="http://www.w3.org/2000/svg" xmlns:xlink="http://www.w3.org/1999/xlink" x="0px" y="0px"
	 viewBox="0 0 300 350" style="enable-background:new 0 0 300 350;" xml:space="preserve">
<style type="text/css">
	.st0{fill:#99CC33;}
	.st1{fill:#9DDD48;}
	.st2{fill:#D9E021;}
	.st3{fill:#8CC63F;}
	.st4{fill:url(#SVGID_1_);}
	.st5{fill:url(#SVGID_2_);}
	.st6{fill:url(#SVGID_3_);}
	.st7{fill:url(#SVGID_4_);}
	.st8{fill:url(#SVGID_5_);}
	.st9{fill:#FEFEFE;}
	.st10{fill:url(#SVGID_6_);}
	.st11{fill:#669900;}
	.st12{fill:#EDEFFD;}
	.st13{fill:url(#SVGID_7_);}
	.st14{fill:url(#SVGID_8_);}
	.st15{fill:url(#SVGID_9_);}
	.st16{fill:url(#SVGID_10_);}
	.st17{fill:url(#SVGID_11_);}
	.st18{fill:url(#SVGID_12_);}
	.st19{fill:url(#SVGID_13_);}
	.st20{fill:url(#SVGID_14_);}
	.st21{fill:url(#SVGID_15_);}
	.st22{fill:url(#SVGID_16_);}
	.st23{fill:url(#SVGID_17_);}
	.st24{fill:url(#SVGID_18_);}
	.st25{fill:url(#SVGID_19_);}
	.st26{fill:url(#SVGID_20_);}
	.st27{fill:url(#SVGID_21_);}
	.st28{fill:url(#SVGID_22_);}
	.st29{fill:url(#SVGID_23_);}
	.st30{fill:url(#SVGID_24_);}
	.st31{fill:url(#SVGID_25_);}
	.st32{fill:url(#SVGID_26_);}
	.st33{fill:#7A88C2;}
	.st34{fill:#333349;}
	.st35{fill:#FDFDFD;}
	.st36{fill:#333333;}
	.st37{fill:none;stroke:#4D4D4D;stroke-width:4;stroke-linecap:round;stroke-linejoin:round;stroke-miterlimit:10;}
	.st38{fill:none;stroke:#1A1A1A;stroke-width:5;stroke-linecap:round;stroke-miterlimit:10;}
	.st39{fill:#1A1A1A;}
	.st40{opacity:0.44;fill:#FFFFFF;stroke:#000000;stroke-width:0.5;stroke-miterlimit:10;}
	.st41{fill:none;}
	.st42{font-family:'CirceRounded-Bold';}
	.st43{font-size:23.0609px;}
	.st44{font-family:'CirceRounded-Light';}
	.st45{font-size:16.0423px;}
	.st46{fill:none;stroke:#1A1A1A;stroke-width:4;stroke-linecap:round;stroke-linejoin:round;stroke-miterlimit:10;}
	.st47{stroke:#000000;stroke-width:4;stroke-linecap:round;stroke-linejoin:round;stroke-miterlimit:10;}
	.st48{fill:none;stroke:#000000;stroke-width:4;stroke-linecap:round;stroke-linejoin:round;stroke-miterlimit:10;}
	.st49{fill:#1A1A1A;stroke:#000000;stroke-width:4;stroke-linecap:round;stroke-linejoin:round;stroke-miterlimit:10;}
</style>
<g id="Layer_1">
	<g>
		<g>
			<path class="st38" d="M-45.1,121.6c25.6-22.7,53.9-22.4,80.2-5.3"/>
			<g>
				<polygon class="st39" points="25.2,123.9 48.5,126.6 39.2,105.1 				"/>
			</g>
		</g>
	</g>
	<g>
		<g>
			<path class="st38" d="M255.9,121.6c25.6-22.7,53.9-22.4,80.2-5.3"/>
		</g>
	</g>
</g>
<g id="Layer_2">
</g>
<g id="Layer_3">
</g>
<g id="Layer_4">
	<rect x="42.2" y="207.1" class="st41" width="231.6" height="32"/>
	<text transform="matrix(1 0 0 1 82.4999 223.2431)" class="st39 st42 st43">Make a post</text>
	<rect x="63.2" y="247.4" class="st41" width="187.5" height="121.6"/>
	<text transform="matrix(1 0 0 1 64.498 258.6353)"><tspan x="0" y="0" class="st39 st44 st45">Simply make a post, adding </tspan><tspan x="5.1" y="19.3" class="st39 st44 st45">an image, description and </tspan><tspan x="43.6" y="38.5" class="st39 st44 st45">your location .</tspan></text>
	<g>
		<path class="st39" d="M183,124.2c-22.3-32.3-26.4-35.6-26.4-47.5c0-16.3,13.2-29.5,29.5-29.5s29.5,13.2,29.5,29.5
			c0,11.9-4.1,15.2-26.4,47.5C187.6,126.3,184.5,126.3,183,124.2L183,124.2z M186,89c6.8,0,12.3-5.5,12.3-12.3s-5.5-12.3-12.3-12.3
			c-6.8,0-12.3,5.5-12.3,12.3S179.2,89,186,89z"/>
		<line class="st46" x1="146.9" y1="148.8" x2="147.3" y2="107.2"/>
		<line class="st46" x1="114.8" y1="164.3" x2="121.7" y2="120.9"/>
		<polyline class="st46" points="195.3,125 207.2,150.6 178.8,164.3 146.8,148.8 114.8,164.3 86.5,150.6 107.5,107.6 121.7,120.9 
			147.3,107.2 171.1,121.8 178.7,164.3 		"/>
		<line class="st46" x1="171.1" y1="121.8" x2="173.8" y2="120"/>
	</g>
</g>
</svg>
