<?xml version="1.0" encoding="utf-8"?>
<!-- Generator: Adobe Illustrator 22.1.0, SVG Export Plug-In . SVG Version: 6.00 Build 0)  -->
<svg version="1.1" id="Layer_1" xmlns="http://www.w3.org/2000/svg" xmlns:xlink="http://www.w3.org/1999/xlink" x="0px" y="0px"
	 viewBox="0 0 500 500" style="enable-background:new 0 0 500 500;" xml:space="preserve">
<style type="text/css">
	.st0{fill:#EFEFEF;}
	.st1{fill:#FFFFFF;}
	.st2{fill:#CCCCCC;}
	.st3{fill:#8CC63F;}
</style>
<path class="st1" d="M343.6,209.1v105.3c0,9.7-7.9,17.5-17.5,17.5H174c-9.7,0-17.5-7.9-17.5-17.5V209.1c0-9.7,7.9-17.5,17.5-17.5
	h32.2l4.5-12c2.6-6.8,9.1-11.4,16.4-11.4h45.9c7.3,0,13.9,4.5,16.4,11.4l4.5,12H326C335.7,191.5,343.6,199.4,343.6,209.1z
	 M293.9,261.7c0-24.2-19.7-43.9-43.9-43.9s-43.9,19.7-43.9,43.9s19.7,43.9,43.9,43.9S293.9,285.9,293.9,261.7z M282.2,261.7
	c0,17.7-14.4,32.2-32.2,32.2s-32.2-14.4-32.2-32.2s14.4-32.2,32.2-32.2S282.2,244,282.2,261.7z"/>
</svg>
