<?xml version="1.0" encoding="utf-8"?>
<!-- Generator: Adobe Illustrator 22.1.0, SVG Export Plug-In . SVG Version: 6.00 Build 0)  -->
<svg version="1.1" id="Layer_1" xmlns="http://www.w3.org/2000/svg" xmlns:xlink="http://www.w3.org/1999/xlink" x="0px" y="0px"
	 viewBox="0 0 500 500" style="enable-background:new 0 0 500 500;" xml:space="preserve">
<style type="text/css">
	.st0{fill:#EFEFEF;}
	.st1{fill:#CCCCCC;}
	.st2{fill:#8CC63F;}
</style>
<circle class="st0" cx="250" cy="250" r="250"/>
<path class="st1" d="M250,250c31.2,0,56.6-25.3,56.6-56.6s-25.3-56.6-56.6-56.6s-56.6,25.3-56.6,56.6S218.8,250,250,250z
	 M289.6,264.1h-7.4c-9.8,4.5-20.7,7.1-32.2,7.1c-11.5,0-22.4-2.6-32.2-7.1h-7.4c-32.8,0-59.4,26.6-59.4,59.4v18.4
	c0,11.7,9.5,21.2,21.2,21.2h155.6c11.7,0,21.2-9.5,21.2-21.2v-18.4C349,290.7,322.4,264.1,289.6,264.1z"/>
</svg>
